<svg xmlns="http://www.w3.org/2000/svg" xmlns:xlink="http://www.w3.org/1999/xlink" width="210" viewBox="0 0 210 45" height="45" version="1.0"><defs><g id="c"><path d="M 13.109375 -3.171875 L 13.109375 0 L 1.453125 0 L 1.453125 -14.53125 L 12.84375 -14.53125 L 12.84375 -11.34375 L 5.515625 -11.34375 L 5.515625 -8.90625 L 11.96875 -8.90625 L 11.96875 -5.828125 L 5.515625 -5.828125 L 5.515625 -3.171875 Z M 13.109375 -3.171875"/></g><g id="d"><path d="M 8.6875 0.296875 C 7.164062 0.296875 5.800781 -0.0234375 4.59375 -0.671875 C 3.382812 -1.316406 2.429688 -2.210938 1.734375 -3.359375 C 1.046875 -4.503906 0.703125 -5.804688 0.703125 -7.265625 C 0.703125 -8.710938 1.046875 -10.007812 1.734375 -11.15625 C 2.429688 -12.3125 3.382812 -13.207031 4.59375 -13.84375 C 5.800781 -14.488281 7.164062 -14.8125 8.6875 -14.8125 C 10.019531 -14.8125 11.21875 -14.578125 12.28125 -14.109375 C 13.34375 -13.640625 14.226562 -12.960938 14.9375 -12.078125 L 12.328125 -9.71875 C 11.390625 -10.84375 10.25 -11.40625 8.90625 -11.40625 C 8.113281 -11.40625 7.410156 -11.234375 6.796875 -10.890625 C 6.179688 -10.546875 5.703125 -10.054688 5.359375 -9.421875 C 5.023438 -8.796875 4.859375 -8.078125 4.859375 -7.265625 C 4.859375 -6.441406 5.023438 -5.71875 5.359375 -5.09375 C 5.703125 -4.46875 6.179688 -3.976562 6.796875 -3.625 C 7.410156 -3.28125 8.113281 -3.109375 8.90625 -3.109375 C 10.25 -3.109375 11.390625 -3.675781 12.328125 -4.8125 L 14.9375 -2.453125 C 14.226562 -1.566406 13.34375 -0.882812 12.28125 -0.40625 C 11.21875 0.0625 10.019531 0.296875 8.6875 0.296875 Z M 8.6875 0.296875"/></g><g id="e"><path d="M 8.78125 0.296875 C 7.238281 0.296875 5.851562 -0.0234375 4.625 -0.671875 C 3.40625 -1.328125 2.445312 -2.226562 1.75 -3.375 C 1.050781 -4.53125 0.703125 -5.828125 0.703125 -7.265625 C 0.703125 -8.703125 1.050781 -9.992188 1.75 -11.140625 C 2.445312 -12.285156 3.40625 -13.179688 4.625 -13.828125 C 5.851562 -14.484375 7.238281 -14.8125 8.78125 -14.8125 C 10.3125 -14.8125 11.6875 -14.484375 12.90625 -13.828125 C 14.132812 -13.179688 15.097656 -12.285156 15.796875 -11.140625 C 16.492188 -9.992188 16.84375 -8.703125 16.84375 -7.265625 C 16.84375 -5.828125 16.492188 -4.53125 15.796875 -3.375 C 15.097656 -2.226562 14.132812 -1.328125 12.90625 -0.671875 C 11.6875 -0.0234375 10.3125 0.296875 8.78125 0.296875 Z M 8.78125 -3.109375 C 9.507812 -3.109375 10.171875 -3.28125 10.765625 -3.625 C 11.359375 -3.976562 11.828125 -4.46875 12.171875 -5.09375 C 12.523438 -5.71875 12.703125 -6.441406 12.703125 -7.265625 C 12.703125 -8.078125 12.523438 -8.796875 12.171875 -9.421875 C 11.828125 -10.054688 11.359375 -10.546875 10.765625 -10.890625 C 10.171875 -11.234375 9.507812 -11.40625 8.78125 -11.40625 C 8.039062 -11.40625 7.375 -11.234375 6.78125 -10.890625 C 6.1875 -10.546875 5.71875 -10.054688 5.375 -9.421875 C 5.03125 -8.796875 4.859375 -8.078125 4.859375 -7.265625 C 4.859375 -6.441406 5.03125 -5.71875 5.375 -5.09375 C 5.71875 -4.46875 6.1875 -3.976562 6.78125 -3.625 C 7.375 -3.28125 8.039062 -3.109375 8.78125 -3.109375 Z M 8.78125 -3.109375"/></g><g id="g"><path d="M 5.5625 -11.34375 L 5.5625 -8.15625 L 11.96875 -8.15625 L 11.96875 -4.984375 L 5.5625 -4.984375 L 5.5625 0 L 1.453125 0 L 1.453125 -14.53125 L 12.84375 -14.53125 L 12.84375 -11.34375 Z M 5.5625 -11.34375"/></g><g id="h"><path d="M 11.1875 -2.828125 L 5.046875 -2.828125 L 3.90625 0 L -0.296875 0 L 6.125 -14.53125 L 10.171875 -14.53125 L 16.59375 0 L 12.328125 0 Z M 9.984375 -5.84375 L 8.109375 -10.5 L 6.25 -5.84375 Z M 9.984375 -5.84375"/></g><g id="i"><path d="M 7.796875 -3.859375 L 5.5625 -3.859375 L 5.5625 0 L 1.453125 0 L 1.453125 -14.53125 L 8.09375 -14.53125 C 9.40625 -14.53125 10.546875 -14.3125 11.515625 -13.875 C 12.484375 -13.4375 13.226562 -12.8125 13.75 -12 C 14.28125 -11.195312 14.546875 -10.25 14.546875 -9.15625 C 14.546875 -8.101562 14.300781 -7.1875 13.8125 -6.40625 C 13.320312 -5.625 12.617188 -5.007812 11.703125 -4.5625 L 14.84375 0 L 10.4375 0 Z M 10.390625 -9.15625 C 10.390625 -9.832031 10.175781 -10.351562 9.75 -10.71875 C 9.320312 -11.09375 8.6875 -11.28125 7.84375 -11.28125 L 5.5625 -11.28125 L 5.5625 -7.03125 L 7.84375 -7.03125 C 8.6875 -7.03125 9.320312 -7.210938 9.75 -7.578125 C 10.175781 -7.953125 10.390625 -8.476562 10.390625 -9.15625 Z M 10.390625 -9.15625"/></g><g id="j"><path d="M 14.5625 0 L 14.53125 -7.703125 L 10.796875 -1.4375 L 8.96875 -1.4375 L 5.25 -7.484375 L 5.25 0 L 1.453125 0 L 1.453125 -14.53125 L 4.828125 -14.53125 L 9.9375 -6.140625 L 14.921875 -14.53125 L 18.296875 -14.53125 L 18.34375 0 Z M 14.5625 0"/></g><g id="k"><path d="M 7.484375 -1.8125 L 7.484375 0 L 0.828125 0 L 0.828125 -8.296875 L 7.328125 -8.296875 L 7.328125 -6.484375 L 3.15625 -6.484375 L 3.15625 -5.078125 L 6.828125 -5.078125 L 6.828125 -3.328125 L 3.15625 -3.328125 L 3.15625 -1.8125 Z M 7.484375 -1.8125"/></g><g id="l"><path d="M 10.046875 0.953125 C 9.765625 1.296875 9.425781 1.554688 9.03125 1.734375 C 8.632812 1.910156 8.195312 2 7.71875 2 C 7.257812 2 6.84375 1.9375 6.46875 1.8125 C 6.101562 1.695312 5.734375 1.503906 5.359375 1.234375 C 4.984375 0.960938 4.5625 0.582031 4.09375 0.09375 C 3.375 -0.0195312 2.734375 -0.273438 2.171875 -0.671875 C 1.617188 -1.066406 1.1875 -1.5625 0.875 -2.15625 C 0.5625 -2.757812 0.40625 -3.421875 0.40625 -4.140625 C 0.40625 -4.960938 0.601562 -5.703125 1 -6.359375 C 1.394531 -7.015625 1.941406 -7.523438 2.640625 -7.890625 C 3.335938 -8.265625 4.128906 -8.453125 5.015625 -8.453125 C 5.890625 -8.453125 6.675781 -8.265625 7.375 -7.890625 C 8.070312 -7.523438 8.617188 -7.015625 9.015625 -6.359375 C 9.410156 -5.703125 9.609375 -4.960938 9.609375 -4.140625 C 9.609375 -3.210938 9.351562 -2.390625 8.84375 -1.671875 C 8.34375 -0.960938 7.660156 -0.453125 6.796875 -0.140625 C 6.953125 0.0351562 7.109375 0.15625 7.265625 0.21875 C 7.421875 0.289062 7.585938 0.328125 7.765625 0.328125 C 8.234375 0.328125 8.65625 0.132812 9.03125 -0.25 Z M 2.765625 -4.140625 C 2.765625 -3.679688 2.863281 -3.269531 3.0625 -2.90625 C 3.257812 -2.550781 3.523438 -2.273438 3.859375 -2.078125 C 4.203125 -1.878906 4.585938 -1.78125 5.015625 -1.78125 C 5.429688 -1.78125 5.804688 -1.878906 6.140625 -2.078125 C 6.484375 -2.273438 6.753906 -2.550781 6.953125 -2.90625 C 7.148438 -3.269531 7.25 -3.679688 7.25 -4.140625 C 7.25 -4.609375 7.148438 -5.019531 6.953125 -5.375 C 6.753906 -5.738281 6.484375 -6.019531 6.140625 -6.21875 C 5.804688 -6.414062 5.429688 -6.515625 5.015625 -6.515625 C 4.585938 -6.515625 4.203125 -6.414062 3.859375 -6.21875 C 3.523438 -6.019531 3.257812 -5.738281 3.0625 -5.375 C 2.863281 -5.019531 2.765625 -4.609375 2.765625 -4.140625 Z M 2.765625 -4.140625"/></g><g id="m"><path d="M 4.65625 0.171875 C 3.425781 0.171875 2.46875 -0.160156 1.78125 -0.828125 C 1.101562 -1.503906 0.765625 -2.457031 0.765625 -3.6875 L 0.765625 -8.296875 L 3.109375 -8.296875 L 3.109375 -3.765625 C 3.109375 -2.441406 3.628906 -1.78125 4.671875 -1.78125 C 5.710938 -1.78125 6.234375 -2.441406 6.234375 -3.765625 L 6.234375 -8.296875 L 8.546875 -8.296875 L 8.546875 -3.6875 C 8.546875 -2.457031 8.203125 -1.503906 7.515625 -0.828125 C 6.835938 -0.160156 5.882812 0.171875 4.65625 0.171875 Z M 4.65625 0.171875"/></g><g id="n"><path d="M 0.828125 -8.296875 L 3.171875 -8.296875 L 3.171875 0 L 0.828125 0 Z M 0.828125 -8.296875"/></g><g id="o"><path d="M 4.625 -8.296875 C 5.375 -8.296875 6.023438 -8.171875 6.578125 -7.921875 C 7.128906 -7.671875 7.550781 -7.3125 7.84375 -6.84375 C 8.144531 -6.382812 8.296875 -5.84375 8.296875 -5.21875 C 8.296875 -4.59375 8.144531 -4.050781 7.84375 -3.59375 C 7.550781 -3.132812 7.128906 -2.78125 6.578125 -2.53125 C 6.023438 -2.289062 5.375 -2.171875 4.625 -2.171875 L 3.171875 -2.171875 L 3.171875 0 L 0.828125 0 L 0.828125 -8.296875 Z M 4.484375 -4.015625 C 4.960938 -4.015625 5.320312 -4.117188 5.5625 -4.328125 C 5.8125 -4.535156 5.9375 -4.832031 5.9375 -5.21875 C 5.9375 -5.601562 5.8125 -5.898438 5.5625 -6.109375 C 5.320312 -6.328125 4.960938 -6.4375 4.484375 -6.4375 L 3.171875 -6.4375 L 3.171875 -4.015625 Z M 4.484375 -4.015625"/></g><g id="p"><path d="M 8.3125 0 L 8.296875 -4.390625 L 6.15625 -0.8125 L 5.109375 -0.8125 L 3 -4.28125 L 3 0 L 0.828125 0 L 0.828125 -8.296875 L 2.765625 -8.296875 L 5.671875 -3.5 L 8.515625 -8.296875 L 10.453125 -8.296875 L 10.46875 0 Z M 8.3125 0"/></g><g id="q"><path d="M 8.71875 -8.296875 L 8.71875 0 L 6.78125 0 L 3.125 -4.421875 L 3.125 0 L 0.828125 0 L 0.828125 -8.296875 L 2.765625 -8.296875 L 6.421875 -3.875 L 6.421875 -8.296875 Z M 8.71875 -8.296875"/></g><g id="r"><path d="M 2.59375 -6.4375 L 0.046875 -6.4375 L 0.046875 -8.296875 L 7.46875 -8.296875 L 7.46875 -6.4375 L 4.9375 -6.4375 L 4.9375 0 L 2.59375 0 Z M 2.59375 -6.4375"/></g><clipPath id="a"><path d="M 11 5 L 40.507812 5 L 40.507812 43.742188 L 11 43.742188 Z M 11 5"/></clipPath><clipPath id="b"><path d="M 1.507812 0.992188 L 30 0.992188 L 30 41 L 1.507812 41 Z M 1.507812 0.992188"/></clipPath></defs><path fill="#FFF" d="M-21 -4.5H231V49.5H-21z"/><path fill="#FFF" d="M-21 -4.5H231V49.5H-21z"/><path fill="#006D1B" d="M-21 -4.5H231V49.5H-21z"/><g clip-path="url(#a)"><path fill="#FFF" d="M 29.925781 5.210938 L 30.75 5.683594 L 37.652344 9.621094 C 38.53125 10.125 39.222656 10.808594 39.730469 11.679688 C 40.238281 12.546875 40.492188 13.484375 40.492188 14.488281 L 40.492188 30.242188 C 40.492188 31.246094 40.238281 32.183594 39.734375 33.054688 C 39.226562 33.921875 38.53125 34.609375 37.652344 35.109375 L 30.75 39.050781 L 23.847656 42.988281 C 22.96875 43.492188 22.019531 43.742188 21.003906 43.742188 C 19.988281 43.742188 19.042969 43.492188 18.160156 42.988281 L 11.597656 39.242188 L 14.261719 37.441406 C 21.808594 40.703125 40.25 30.289062 29.925781 5.210938 Z M 29.925781 5.210938" fill-rule="evenodd"/></g><path fill="#D9D9D9" d="M 14.183594 40.710938 L 11.605469 39.242188 L 14.273438 37.441406 C 21.511719 40.574219 38.792969 31.101562 31.035156 8.15625 C 39.507812 30.734375 24.402344 40.316406 14.183594 40.710938 Z M 14.183594 40.710938" fill-rule="evenodd"/><g clip-path="url(#b)"><path fill="#8DC63F" d="M 23.847656 1.746094 L 29.6875 5.078125 C 24.769531 18.519531 -2.203125 17.304688 9.449219 34.984375 C 15.257812 31.617188 20.78125 27.679688 24.261719 19.691406 C 24.070312 27.125 17.679688 33.359375 10.234375 38.160156 L 10.0625 38.269531 L 10.007812 38.304688 L 9.984375 38.320312 C 8.863281 39.035156 7.714844 39.722656 6.5625 40.371094 L 7.765625 37.050781 L 4.363281 35.109375 C 3.484375 34.609375 2.789062 33.921875 2.285156 33.054688 C 1.777344 32.183594 1.523438 31.246094 1.523438 30.242188 L 1.523438 14.488281 C 1.523438 13.484375 1.777344 12.546875 2.285156 11.679688 C 2.792969 10.808594 3.484375 10.125 4.363281 9.621094 L 11.265625 5.683594 L 18.164062 1.746094 C 19.042969 1.242188 19.992188 0.992188 21.007812 0.992188 C 22.019531 0.992188 22.96875 1.242188 23.847656 1.746094 Z M 23.847656 1.746094" fill-rule="evenodd"/></g><g fill="#8DC63F"><use x="49.508" y="22.328" xmlns:xlink="http://www.w3.org/1999/xlink" xlink:href="#c" xlink:type="simple" xlink:actuate="onLoad" xlink:show="embed"/></g><g fill="#8DC63F"><use x="68.26" y="22.328" xmlns:xlink="http://www.w3.org/1999/xlink" xlink:href="#d" xlink:type="simple" xlink:actuate="onLoad" xlink:show="embed"/></g><g fill="#8DC63F"><use x="88.38" y="22.328" xmlns:xlink="http://www.w3.org/1999/xlink" xlink:href="#e" xlink:type="simple" xlink:actuate="onLoad" xlink:show="embed"/></g><g fill="#8DC63F"><use x="110.741" y="22.328" xmlns:xlink="http://www.w3.org/1999/xlink" xlink:href="#f" xlink:type="simple" xlink:actuate="onLoad" xlink:show="embed"/></g><g fill="#8DC63F"><use x="121.591" y="22.328" xmlns:xlink="http://www.w3.org/1999/xlink" xlink:href="#g" xlink:type="simple" xlink:actuate="onLoad" xlink:show="embed"/></g><g fill="#8DC63F"><use x="139.721" y="22.328" xmlns:xlink="http://www.w3.org/1999/xlink" xlink:href="#h" xlink:type="simple" xlink:actuate="onLoad" xlink:show="embed"/></g><g fill="#8DC63F"><use x="160.837" y="22.328" xmlns:xlink="http://www.w3.org/1999/xlink" xlink:href="#i" xlink:type="simple" xlink:actuate="onLoad" xlink:show="embed"/></g><g fill="#8DC63F"><use x="180.999" y="22.328" xmlns:xlink="http://www.w3.org/1999/xlink" xlink:href="#j" xlink:type="simple" xlink:actuate="onLoad" xlink:show="embed"/></g><g fill="#FFF"><use x="59.49" y="38.969" xmlns:xlink="http://www.w3.org/1999/xlink" xlink:href="#k" xlink:type="simple" xlink:actuate="onLoad" xlink:show="embed"/></g><g fill="#FFF"><use x="74.319" y="38.969" xmlns:xlink="http://www.w3.org/1999/xlink" xlink:href="#l" xlink:type="simple" xlink:actuate="onLoad" xlink:show="embed"/></g><g fill="#FFF"><use x="91.209" y="38.969" xmlns:xlink="http://www.w3.org/1999/xlink" xlink:href="#m" xlink:type="simple" xlink:actuate="onLoad" xlink:show="embed"/></g><g fill="#FFF"><use x="107.388" y="38.969" xmlns:xlink="http://www.w3.org/1999/xlink" xlink:href="#n" xlink:type="simple" xlink:actuate="onLoad" xlink:show="embed"/></g><g fill="#FFF"><use x="118.274" y="38.969" xmlns:xlink="http://www.w3.org/1999/xlink" xlink:href="#o" xlink:type="simple" xlink:actuate="onLoad" xlink:show="embed"/></g><g fill="#FFF"><use x="133.873" y="38.969" xmlns:xlink="http://www.w3.org/1999/xlink" xlink:href="#p" xlink:type="simple" xlink:actuate="onLoad" xlink:show="embed"/></g><g fill="#FFF"><use x="152.042" y="38.969" xmlns:xlink="http://www.w3.org/1999/xlink" xlink:href="#k" xlink:type="simple" xlink:actuate="onLoad" xlink:show="embed"/></g><g fill="#FFF"><use x="166.871" y="38.969" xmlns:xlink="http://www.w3.org/1999/xlink" xlink:href="#q" xlink:type="simple" xlink:actuate="onLoad" xlink:show="embed"/></g><g fill="#FFF"><use x="183.287" y="38.969" xmlns:xlink="http://www.w3.org/1999/xlink" xlink:href="#r" xlink:type="simple" xlink:actuate="onLoad" xlink:show="embed"/></g></svg>